<svg xmlns="http://www.w3.org/2000/svg" width="825" height="907" viewBox="0 0 825 907">
  <g fill="none" fill-rule="evenodd">
    <g fill-rule="nonzero">
      <path fill="#696969" d="M28.4 215h768.2a28.5 28.5 0 0 1 28.4 28.4v512.1a28.5 28.5 0 0 1-28.4 28.5H28.4A28.5 28.5 0 0 1 0 755.5v-512A28.5 28.5 0 0 1 28.4 215z"/>
      <path fill="#3D3D3D" d="M28.5 215H114v569H28.5A28.5 28.5 0 0 1 0 755.5v-512A28.5 28.5 0 0 1 28.5 215zM740 215h56.7a28.4 28.4 0 0 1 28.3 28.4v512.1a28.4 28.4 0 0 1-28.3 28.5H740V215z"/>
      <path fill="#CFDFE8" d="M57 542a14 14 0 0 1-14-14.2v-56.6A14 14 0 0 1 57 457a14 14 0 0 1 14 14.2v56.6A14 14 0 0 1 57 542z"/>
    </g>
    <g stroke="#CE3144" stroke-width="20" transform="translate(347 293)">
      <circle cx="49.5" cy="49.5" r="49.5"/>
      <circle cx="49.5" cy="49.5" r="34.5" stroke-opacity=".8"/>
    </g>
    <g stroke="#CE3144" stroke-width="20" transform="translate(188 567)">
      <circle cx="59.5" cy="59.5" r="59.5"/>
      <circle cx="59.5" cy="59.5" r="41.5" stroke-opacity=".8"/>
    </g>
    <g stroke="#CE3144" stroke-width="20" transform="translate(589 467)">
      <circle cx="45" cy="45" r="45"/>
      <circle cx="45.5" cy="45.5" r="31.5" stroke-opacity=".8"/>
    </g>
    <g fill-rule="nonzero">
      <path fill="#3D3D3D" d="M510.2 300L439 228.8 666.7 15.3a49 49 0 0 1 71.2 0 39.4 39.4 0 0 1 0 57L510.2 300z"/>
      <path fill="#313131" d="M396 343l42.8-114 71.2 71.3z"/>
    </g>
    <path fill="#3D3D3D" fill-rule="nonzero" d="M769.7 640.2l-132.2-132a4.4 4.4 0 0 0-7.5 3.2v193.4a4.4 4.4 0 0 0 7.8 2.8l35.2-43 23.5 50.9a4.4 4.4 0 0 0 5.7 2.1l30.9-13.1a4.4 4.4 0 0 0 2.2-6l-23.5-50.8h54.8a4.4 4.4 0 0 0 3.1-7.5zM357 698.9h-1.5a17 17 0 0 0-17 17V731h-2.1V716a17 17 0 0 0-17-17h-1.6a17 17 0 0 0-17 17V731h-2.1V716a17 17 0 0 0-17-17h-1.6a17 17 0 0 0-17 17V731h-1v-97a17 17 0 0 0-17.1-17h-1.7a17 17 0 0 0-17 17v148.4c-4.6-5.1-8.6-10.4-12.3-15.1-8.1-10.6-14.5-19-21.8-20.6-8-1.9-15.4.8-19 6.6-3.4 5.5-2.8 13 1.4 21.3 9.3 17.8 54 96 54 96 3.5 8.5 19 36.4 71.5 36.4v-1.9 1.9c38.1 0 56.2-18 64.6-33.1a74.7 74.7 0 0 0 9.3-33v-125a17 17 0 0 0-17-17z"/>
    <path fill="#000" d="M1.5 187.5c-.3-.8-.3-1.8 0-3a63.2 63.2 0 0 1 4.9-11 7.3 7.3 0 0 0 .4-1.2 25.9 25.9 0 0 1 2-4.6A3165.4 3165.4 0 0 1 19 146.8v-1.5c-.8-.2-1.6-.1-2.4.1a17 17 0 0 0-4.2 2.3l-1.8 1.4c-.6-.1-1-.4-1-.9-.1-.4 0-.9.1-1.4.2-.5.4-1 .8-1.4l.9-.9c4.7-2.9 9.7-4.8 15-5.8 5.4-1 10.8-1 16.3-.2a17 17 0 0 1 6.8 5.3 7.7 7.7 0 0 1 1.3 5.6 12 12 0 0 1-3 5.8 35.3 35.3 0 0 1-6 5.4 61.7 61.7 0 0 1-16.6 8.7c-2.9 1-5.6 1.9-8.2 2.5-2.5.6-4.6.9-6.4.9a316 316 0 0 0-3.3 5.6 19.1 19.1 0 0 0-1.4 3.7 106.2 106.2 0 0 1-2 6.3l-.8.7c-.2 0-.5-.3-.8-.7l-.8-.8zM13 168.9c2 .3 4 .2 6-.2a58.7 58.7 0 0 0 12.3-4.6l5.3-2.8a35 35 0 0 0 8.5-6.2c1.8-2 3-3.8 3.4-5.6a6 6 0 0 0-.6-4.6c-.8-1.3-2-2.4-3.5-3.2-1.5-.9-3.3-1.4-5.4-1.6a17.1 17.1 0 0 0-16.9 9 266 266 0 0 0-5.6 11 263.6 263.6 0 0 0-3.5 7.3v1.5zm35 19.4c-2-.8-3.1-2-3.6-3.5a9.1 9.1 0 0 1 0-5c.5-2 1.4-3.9 2.6-5.9a37.3 37.3 0 0 1 8.5-9.7 8.7 8.7 0 0 1 4-1.9c2.7-.3 4.9-.2 6.5.6 1.6.7 2.7 1.8 3.2 3.2.6 1.4.8 3 .5 4.9a19 19 0 0 1-1.8 5.6 27.1 27.1 0 0 1-8.4 9.9c-1.8 1.2-3.6 2-5.6 2.3-2 .4-4 .2-6-.5zm-.8-3.9c.4 1.5 1.1 2.3 2.3 2.4 1.2.2 2.5-.1 4-.9a37.9 37.9 0 0 0 13-12.9c1-1.6 1.5-3 1.5-4.3 0-1.3-.6-2.3-1.8-3-1.2-.6-3.2-.7-6-.3l-2.4 2.1a77.3 77.3 0 0 0-6.2 6c-1 1.1-2 2.3-2.7 3.5-.8 1.2-1.3 2.5-1.7 3.7a7.2 7.2 0 0 0 0 3.7zm26.7 3.9c1.8-6 3.5-10.7 5-14.2a42 42 0 0 1 3.8-7.3c1-1.4 1.7-1.8 2-1.3.4.5.4 1.7 0 3.8A100.2 100.2 0 0 1 76 189c-.4.1-.8.2-1.3 0-.5 0-.8-.3-1-.7zm11.8-32.5l-.1-1.2.1-1c1-.4 1.8-.4 2.4-.2.5.3.8.7 1 1.2v1.7l-.8 1.3c-.4.3-.8.3-1.3.1-.5-.2-.9-.8-1.3-1.9zm32.4 32.5c-.1-1.5 0-3 .4-4.5a26 26 0 0 1 1.5-4.3l2.1-4.2c.8-1.4 1.4-2.8 2-4.2.5-1.4.9-2.7 1.1-4 .2-1.4.1-2.7-.3-4a5.4 5.4 0 0 0-3.8.3c-1.5.6-3 1.5-4.7 2.7a172.9 172.9 0 0 0-10 9l-4.7 4.7a53.3 53.3 0 0 1-4 3.6 9.7 9.7 0 0 1-3 1.9c-.8.2-1.4 0-1.6-.9l.7-1.7a588.9 588.9 0 0 0 4.9-9.5 781.1 781.1 0 0 1 5.2-9.7 7.6 7.6 0 0 1 1.3-2c1 .7 1.4 1.4 1.4 2.1 0 .8 0 1.5-.3 2.3l-1 2.4c-.3.8-.3 1.6-.1 2.4a1729.3 1729.3 0 0 1 7.2-4.7 93.2 93.2 0 0 1 9.3-5c1.4-.4 2.7-.7 3.9-.8 1.1 0 2 .3 2.5 1 .5.8.7 2 .5 3.6-.2 1.6-1 3.9-2.1 6.7a750 750 0 0 1-5.3 12.2l-.2 1a94 94 0 0 1-.7 3.1 3 3 0 0 1-.6 1.2c-.3.3-.6.2-1-.1a4 4 0 0 1-.6-.6zm20.2 0v-.8-.8a187.5 187.5 0 0 1 3-10.4 142.3 142.3 0 0 0 1.4-4.7c.3-.8.3-1.6.2-2.4-.7-.1-1.5 0-2.5.2l-3 .6c-1 .2-1.8.2-2.7 0-.8-.1-1.4-.7-1.7-1.6a4 4 0 0 1 2.4-2.1c1-.4 2.2-.6 3.5-.7l3.6-.7c1.1-.2 2-.8 2.7-1.8a402.8 402.8 0 0 0 3.3-9.5 93.8 93.8 0 0 1 4.3-10.3c.5-.3 1-.3 1.2 0 .4.2.6.6.8 1.1a7.6 7.6 0 0 1 .3 2.7c-.3 1.2-.8 2.4-1.4 3.7a71 71 0 0 0-3.2 8 7.7 7.7 0 0 0 0 4h14.5l.3.4.5.7c.2.6 0 1-.8 1.2-.7.3-1.7.4-2.9.5l-4.1.1c-1.6 0-3 .2-4.5.4-1.4.2-2.6.5-3.8 1a4 4 0 0 0-2.3 2 174.6 174.6 0 0 0-6 18.4 6.2 6.2 0 0 1-1.4 1.3l-1 .3c-.2 0-.5-.3-.7-.8zm30.2 0a6.1 6.1 0 0 1-3-2.1c-.8-1-1.2-2-1.5-3a11 11 0 0 1 0-3.6c0-1.2.3-2.4.7-3.5l4.6-5a102.3 102.3 0 0 1 11.2-10.5c2-1.6 4.1-2.7 6.2-3.5.8-.4 1.3-.3 1.8 0 .4.3.7.9.9 1.6l.2 2.5a22.2 22.2 0 0 1-.8 5.2c-.2.7-.4 1.2-.6 1.4-.6.7-1.6 1.4-3.2 2.3a509.4 509.4 0 0 1-10.8 5.9c-1.9 1-3.4 2.1-4.6 3.2a6 6 0 0 0-2.2 3.1c-.2 1 .4 2 1.9 2.9 1.5.1 3.4 0 5.5-.3a76.3 76.3 0 0 0 13.3-3l5.2-1.5.8.7a13 13 0 0 1-4.9 3.6 41.6 41.6 0 0 1-14.9 4c-2.4.2-4.4 0-5.8-.4zm16-25.8l-1 .6a58 58 0 0 0-5.2 4 184.7 184.7 0 0 0-5.8 5c.7 0 1.6 0 2.7-.4a29.5 29.5 0 0 0 7.1-3.6c1.2-.7 2-1.5 2.7-2.3.7-.7 1-1.4 1-2 0-.6-.4-1-1.4-1.3zm11 25.8l.1-1.6a112.2 112.2 0 0 1 3.9-18.6c.4-1.3.9-2.2 1.3-2.7.3-.3.7-.3 1 0l1 1c.2.5.5.9.9 1.2.3.3.6.4 1 .1 1.2-1.7 2.6-3.4 4.1-5a26 26 0 0 1 5-4.2l1.5-.6a41.1 41.1 0 0 1 8.8-1.9c.8 0 1.3.2 1.6.6.3.4.2 1-.4 2a14 14 0 0 0-7.6 2.3 31.8 31.8 0 0 0-6.4 5.7c-2 2.2-3.8 4.6-5.4 7.3a132.1 132.1 0 0 0-7.2 12.9c-.8 1.5-1.3 2.2-1.7 2.2l-.6-.3-.8-.4zm33.6-.8a130.9 130.9 0 0 1 6.7-19c.3-.5.3-.9 0-1.3l-1-1.3c-.4-.4-.7-.9-.8-1.3-.2-.5 0-1 .5-1.5l.5-.2a24.2 24.2 0 0 0 2.5-.6l.8-.7.7-.8a55.7 55.7 0 0 1 3.9-6 26.3 26.3 0 0 0 2.7-6.6c.1-.6 0-1-.4-1l-1.3-.5c-.5-.2-.9-.4-1.2-.7-.3-.2-.3-.8 0-1.6.1-.5 1-1 2.5-1.6a113.7 113.7 0 0 1 22.8-4.2l8.5-.6c2.7 0 5 0 6.9.3 1.9.2 3.2.7 4 1.3.8.6.8 1.4 0 2.5H286l-1.3-.3-1.4-.3a60.4 60.4 0 0 1-7.7.1 285.2 285.2 0 0 0-12.5.1c-2 .2-4 .6-6.2 1.1a9.5 9.5 0 0 0-3.8 2.2c-1.1 1-2.2 2.3-3.2 3.8-1 1.6-2 3.3-3 5.4l-3.4 6.6c.5.2 1.4 0 2.8-.2a144 144 0 0 0 10.3-2.6c2-.5 3.8-.8 5.6-1a17 17 0 0 1 4.5 0c1.3.2 2.2.7 2.6 1.5l.1.4v.4l-7.4 1a119.7 119.7 0 0 0-14.9 2.9c-2.4.7-4.6 1.7-6.7 3a89.2 89.2 0 0 0-8.2 19 53.2 53.2 0 0 1 9.5-2.5 123.5 123.5 0 0 1 17.4-2.7c3.5-.3 7.2-.4 11-.2.3.1.5.3.7.6l.2.9v1l-.1.6a79 79 0 0 0-14.6.6c-4.8.6-9.6 1.4-14.4 2.5-.8.1-1.7.5-2.8 1a42.9 42.9 0 0 1-6.7 1.9c-1 .1-1.9 0-2.6-.6-.2 0-.4-.2-.5-.3a1 1 0 0 1-.3-.5zm54.5 0c-1-.6-1.6-1.4-2-2.6-.4-1.2-.7-2.5-.7-4s0-3 .3-4.6a73.6 73.6 0 0 1 2.4-11.7h.7c.3.1.5.3.7.6l.7.7.2.3v4.6a144.3 144.3 0 0 1-.8 9v4.6c.3.7 1 .7 2.2 0 1.1-.6 2.5-1.7 4.1-3.1l5.3-5.2a1316.2 1316.2 0 0 0 11-11.5c1.6-1.8 3-3 4.2-4 1.1-1 2-1.3 2.4-1.1.4.1.3 1-.2 2.8-1.1 1-2.4 2.4-3.9 4.3a693.8 693.8 0 0 1-10.3 12.6 47 47 0 0 1-5.7 5.5c-1.9 1.6-3.8 2.6-5.5 3.3-1.8.6-3.5.4-5.1-.5zm39.2.8a6.1 6.1 0 0 1-3-2.1c-.7-1-1.2-2-1.4-3a11 11 0 0 1-.1-3.6c.1-1.2.4-2.4.8-3.5l4.5-5a102.3 102.3 0 0 1 11.3-10.5c2-1.6 4-2.7 6.2-3.5.7-.4 1.3-.3 1.7 0 .4.3.7.9 1 1.6l.2 2.5a22.2 22.2 0 0 1-.8 5.2c-.2.7-.5 1.2-.7 1.4-.5.7-1.6 1.4-3.1 2.3a509.4 509.4 0 0 1-10.8 5.9c-2 1-3.5 2.1-4.7 3.2a6 6 0 0 0-2.2 3.1c-.2 1 .5 2 2 2.9 1.5.1 3.3 0 5.5-.3a76.3 76.3 0 0 0 13.2-3l5.2-1.5.8.7a13 13 0 0 1-4.8 3.6 41.6 41.6 0 0 1-15 4c-2.4.2-4.3 0-5.8-.4zm16.1-25.8l-1 .6a58 58 0 0 0-5.3 4 184.7 184.7 0 0 0-5.8 5c.7 0 1.7 0 2.8-.4a29.5 29.5 0 0 0 7.1-3.6c1.1-.7 2-1.5 2.7-2.3.6-.7 1-1.4 1-2 0-.6-.5-1-1.5-1.3zm35.4 25.8c-.2-1.5 0-3 .3-4.5a26 26 0 0 1 1.6-4.3l2-4.2c.8-1.4 1.4-2.8 2-4.2.5-1.4.9-2.7 1.1-4 .3-1.4.2-2.7-.2-4a5.4 5.4 0 0 0-4 .3c-1.4.6-3 1.5-4.5 2.7a172.9 172.9 0 0 0-10 9l-4.8 4.7a53.3 53.3 0 0 1-4 3.6 9.7 9.7 0 0 1-3 1.9c-.8.2-1.3 0-1.6-.9l.8-1.7a588.8 588.8 0 0 0 4.8-9.5 781 781 0 0 1 5.2-9.7 7.6 7.6 0 0 1 1.3-2c1 .7 1.4 1.4 1.5 2.1 0 .8-.1 1.5-.4 2.3l-1 2.4c-.3.8-.3 1.6 0 2.4a1729.3 1729.3 0 0 1 7-4.7 93.2 93.2 0 0 1 9.4-5c1.5-.4 2.8-.7 3.9-.8 1.1 0 2 .3 2.5 1 .6.8.7 2 .5 3.6-.2 1.6-.9 3.9-2 6.7a750 750 0 0 1-5.4 12.2l-.2 1a94 94 0 0 1-.6 3.1 3 3 0 0 1-.7 1.2c-.3.3-.6.2-1-.1a4 4 0 0 1-.5-.6zm20.2 0v-.8-.8a187.5 187.5 0 0 1 3-10.4 142.3 142.3 0 0 0 1.4-4.7c.2-.8.2-1.6 0-2.4-.6-.1-1.4 0-2.4.2l-3 .6c-.9.2-1.8.2-2.6 0-.9-.1-1.5-.7-1.8-1.6a4 4 0 0 1 2.4-2.1c1-.4 2.3-.6 3.5-.7l3.6-.7c1.2-.2 2-.8 2.7-1.8a402.8 402.8 0 0 0 3.3-9.5 93.8 93.8 0 0 1 4.4-10.3c.5-.3.9-.3 1.2 0 .3.2.5.6.7 1.1a7.6 7.6 0 0 1 .3 2.7c-.3 1.2-.7 2.4-1.4 3.7a71 71 0 0 0-3.2 8 7.7 7.7 0 0 0 0 4H421s.2 0 .3.4l.5.7c.2.6 0 1-.7 1.2-.8.3-1.7.4-3 .5l-4 .1c-1.6 0-3.1.2-4.5.4s-2.7.5-3.8 1a4 4 0 0 0-2.3 2 174.6 174.6 0 0 0-6 18.4 6.2 6.2 0 0 1-1.5 1.3c-.3.2-.6.3-1 .3-.2 0-.4-.3-.6-.8zm26.3 0c-.5-.4-.5-.9 0-1.5s1.3-1.2 2.5-2a56 56 0 0 1 8.4-4.3 1734 1734 0 0 0 5.8-3c1.5-1.2 2.3-2.3 2.4-3 0-1-.3-1.6-1.1-2.1-.9-.5-2-1-3.4-1.2a116.7 116.7 0 0 0-9-1.6 9.6 9.6 0 0 1-3.2-1c-.7-.5-1-1.1-.7-1.9.2-.7 1.2-1.7 3-2.8a520.2 520.2 0 0 1 6.6-4.6 54.5 54.5 0 0 1 7.7-3.9c.5 0 1 0 1.6.2.5.2.9.4 1.2.8.3.3.5.7.4 1 0 .5-.3.8-.9 1.1-2.5 1.5-5 2.8-7.4 4a78 78 0 0 0-7 4.4c-.2.4-.2.7 0 1l.7.5c4.8.5 8.4 1.2 10.8 2.1 2.4 1 4 2 4.6 3 .6 1 .6 2.2-.3 3.4-.8 1.3-2 2.4-3.6 3.6a63 63 0 0 1-16.5 7.5c-1.4.4-2.3.5-2.6.3z"/>
  </g>
</svg>
